:SAMPLES-PER-SECOND 30
:FULLY-SPECIFIED
:DEGREES
112
root  -9.76979 39.0943 1.85523 -6.5359 -78.2576 6.12057
RightUpLeg  10.8172 -9.78572 -1.51843
RightLeg  7.23439 -6.19106 2.1569
RightFoot  -17.1634 -0.209459 -1.82152
RightToes  3.49245e-010 0 -3.6325e-017
Spine  -13.8895 -2.42777 3.91323
Spine1  23.1644 -2.3665 -1.51909
HEad  -8.42868 -1.24467 -5.10227
LeftShoulder1  -0.613125 5.068 -33.0432
LeftArm  0.416903 11.7146 -40.0306
LeftForeArm  22.2071 -14.6346 -6.65715
LeftHand  -0.0505626 7.16017 -0.69198
RightShoulder  -0.6914 -5.48022 28.3032
RightArm  30.8965 11.8129 50.5661
RightForeArm  3.17214 22.3834 5.0144
RightHand  -0.147592 3.16996 -2.24176
LeftUpLeg  -20.0478 -1.17908 -2.59547
LeftLeg  -2.12809 -3.50245 0.402831
LeftFoot  -1.74245 0.509193 -5.96526
LeftToes  -5.36635e-011 -6.70219e-011 5.24975e-011
113
root  -10.8307 38.8508 1.92959 -3.84207 -79.64 4.03329
RightUpLeg  11.6325 -9.41321 -1.00868
RightLeg  7.64129 -5.1839 2.12173
RightFoot  -18.6425 -0.24459 -1.87541
RightToes  3.49245e-010 0 -3.6325e-017
Spine  -13.8879 -2.02079 4.3595
Spine1  22.6424 -1.89785 -2.0427
HEad  -8.80955 -0.63539 -4.76359
LeftShoulder1  -0.64341 5.13015 -33.4049
LeftArm  -5.42449 12.5226 -39.2776
LeftForeArm  27.6384 -8.37042 -7.69377
LeftHand  -0.100523 8.68619 -1.75963
RightShoulder  -0.717856 -5.5299 28.7672
RightArm  30.99 11.8746 51.4233
RightForeArm  6.61492 17.2069 6.56244
RightHand  -0.104724 2.95898 -1.68864
LeftUpLeg  -21.7855 -0.786272 -2.05602
LeftLeg  -4.99212 -0.85723 -0.0737036
LeftFoot  -2.66459 0.539771 -6.89071
LeftToes  -5.36635e-011 -6.70219e-011 5.24975e-011
114
root  -12.0332 38.5343 2.05797 -2.54547 -79.4696 2.85275
RightUpLeg  13.5212 -9.26195 -0.843811
RightLeg  7.85173 -5.41048 1.99842
RightFoot  -20.4865 -0.222623 -1.05633
RightToes  3.49245e-010 0 -3.6325e-017
Spine  -13.8936 -2.18785 3.96332
Spine1  22.6914 -2.03139 -2.13528
HEad  -9.16172 -0.593864 -4.25002
LeftShoulder1  -0.617381 5.04752 -33.8296
LeftArm  -6.89783 13.8198 -38.6879
LeftForeArm  30.1999 -4.54056 -7.02567
LeftHand  -0.159301 9.48842 -2.91745
RightShoulder  -0.776359 -5.66708 29.236
RightArm  25.0347 10.9216 51.6226
RightForeArm  14.7862 12.0211 8.59136
RightHand  -0.0660237 2.40695 -1.16827
LeftUpLeg  -23.7976 -1.38771 -2.37192
LeftLeg  -2.00642 1.48793 -0.0508819
LeftFoot  -2.06944 0.506231 -5.99649
LeftToes  -5.36635e-011 -6.70219e-011 5.24975e-011
115
root  -13.3641 38.1939 2.22139 -4.05685 -79.2788 3.88528
RightUpLeg  16.3433 -9.57195 -1.50639
RightLeg  8.13347 -5.09767 2.00955
RightFoot  -22.0967 -0.158733 -0.0866999
RightToes  3.49245e-010 0 -3.6325e-017
Spine  -13.7365 -2.11798 3.39947
Spine1  23.3731 -1.71498 -2.49908
HEad  -10.0225 -1.2349 -3.57121
LeftShoulder1  -0.576047 4.94557 -33.8032
LeftArm  -6.94487 15.2488 -38.0895
LeftForeArm  33.2226 -2.7977 -6.76064
LeftHand  -0.201292 9.21141 -4.34017
RightShoulder  -0.898213 -5.93375 30.364
RightArm  19.0708 9.07246 50.8009
RightForeArm  22.0804 7.86957 8.89943
RightHand  0.0162974 0.473019 0.345105
LeftUpLeg  -25.3985 -2.1025 -3.23622
LeftLeg  4.12991 3.80234 0.373038
LeftFoot  -0.300819 0.300674 -3.47259
LeftToes  -5.36635e-011 -6.70219e-011 5.24975e-011
116
root  -14.7685 37.9479 2.34009 -8.42471 -79.847 8.00439
RightUpLeg  19.1479 -9.81703 -2.71215
RightLeg  8.00232 -3.99322 1.74217
RightFoot  -22.7512 0.0052004 1.57984
RightToes  3.49245e-010 0 -3.6325e-017
Spine  -13.8695 -1.7858 1.62493
Spine1  24.1528 -1.17569 -2.32669
HEad  -10.4764 -1.6195 -2.89098
LeftShoulder1  -0.687783 5.21883 -33.9109
LeftArm  -6.31056 17.5709 -36.8624
LeftForeArm  35.7947 -3.51584 -7.03621
LeftHand  -0.232225 8.93243 -5.69714
RightShoulder  -0.984586 -6.10478 31.2795
RightArm  16.248 6.37278 49.7798
RightForeArm  24.7056 4.9877 8.40102
RightHand  0.0315754 -1.40077 1.21287
LeftUpLeg  -26.8399 -2.48293 -4.24453
LeftLeg  10.3093 3.24574 0.853444
LeftFoot  5.01229 -0.319526 2.14434
LeftToes  -5.36635e-011 -6.70219e-011 5.24975e-011
117
root  -16.2829 37.6512 2.49506 -12.5749 -80.0785 11.8949
RightUpLeg  21.3593 -10.5696 -4.17314
RightLeg  9.6636 -2.12516 1.3076
RightFoot  -23.4212 0.330127 4.60265
RightToes  3.49245e-010 0 -3.6325e-017
Spine  -13.7343 -1.58879 -0.0675791
Spine1  24.1133 -0.941377 -1.80952
HEad  -10.7574 -1.82429 -2.32875
LeftShoulder1  -0.846439 5.57646 -34.6581
LeftArm  -5.16934 20.0521 -34.6173
LeftForeArm  35.5903 -5.22626 -7.54898
LeftHand  -0.197259 8.43277 -5.40657
RightShoulder  -1.01835 -6.15209 31.8651
RightArm  14.6972 2.74556 48.5763
RightForeArm  23.6997 3.5043 7.85362
RightHand  -0.0105072 -0.678555 -0.0927603
LeftUpLeg  -28.1803 -3.16816 -4.67998
LeftLeg  17.0609 3.44624 1.53718
LeftFoot  8.00776 -0.560932 3.05389
LeftToes  -5.36635e-011 -6.70219e-011 5.24975e-011
118
root  -17.731 37.4297 2.71016 -17.679 -79.9112 16.6671
RightUpLeg  22.8839 -12.0657 -6.4322
RightLeg  12.8205 0.643677 0.867227
RightFoot  -23.1886 0.715675 8.41504
RightToes  3.49245e-010 0 -3.6325e-017
Spine  -13.4764 -1.38095 -1.5873
Spine1  24.4585 -0.622218 -1.77188
HEad  -10.9708 -2.39383 -1.93343
LeftShoulder1  -0.893373 5.69309 -34.6012
LeftArm  -5.14865 21.7035 -33.9734
LeftForeArm  33.4924 -6.0089 -7.50353
LeftHand  -0.157464 8.41029 -4.04878
RightShoulder  -1.10266 -6.33894 32.3253
RightArm  13.9163 -0.700661 47.0185
RightForeArm  24.7779 3.33407 7.3766
RightHand  0.0623155 -1.3122 1.94843
LeftUpLeg  -29.1235 -3.88326 -5.66572
LeftLeg  24.2191 3.88577 2.23707
LeftFoot  4.99933 -0.808068 5.42471
LeftToes  -5.36635e-011 -6.70219e-011 5.24975e-011
119
root  -19.2864 37.3558 2.87231 -22.1723 -77.5946 20.3414
RightUpLeg  24.7122 -14.2177 -9.29723
RightLeg  16.9652 2.14726 0.656773
RightFoot  -20.6185 0.976012 13.9063
RightToes  3.49245e-010 0 -3.6325e-017
Spine  -14.272 -2.03168 -5.44296
Spine1  26.7157 -1.45788 -0.732019
HEad  -10.4784 -3.2945 -1.83016
LeftShoulder1  -0.803082 5.49485 -34.1543
LeftArm  -5.69063 22.2681 -34.0242
LeftForeArm  30.266 -5.98029 -7.11991
LeftHand  -0.15424 8.64151 -3.60242
RightShoulder  -1.11069 -6.35131 32.4303
RightArm  13.0448 -4.30581 45.6438
RightForeArm  24.7841 3.71642 6.86902
RightHand  0.056991 -1.27567 2.0037
LeftUpLeg  -27.5065 -4.91083 -7.74385
LeftLeg  28.175 3.53879 2.39784
LeftFoot  1.6446 -0.820788 7.09213
LeftToes  -5.36635e-011 -6.70219e-011 5.24975e-011
